# Blender 4.2.0
# www.blender.org
mtllib rock.mtl
o Icosphere
v 0.655889 -1.468128 -0.476528
v 0.611924 -0.713818 0.789195
v -0.395768 -1.153003 0.785842
v 0.276385 1.109609 -0.850640
v 0.894425 1.109609 0.000000
v -0.290938 1.851084 0.286001
v 0.009510 2.097965 -0.183535
v -0.749815 0.671204 0.462224
v -0.817692 0.765822 -0.439768
v -0.400527 -1.246829 -0.712989
vn 0.3471 -0.8002 0.4890
vn 0.9889 -0.1100 0.0999
vn 0.1945 -0.1128 -0.9744
vn -0.3650 0.0505 -0.9296
vn 0.8085 0.0338 -0.5875
vn 0.6891 0.5240 -0.5006
vn -0.0621 0.1710 0.9833
vn -0.2178 -0.9740 0.0617
vn -0.8890 0.4563 -0.0371
vn -0.0732 0.1604 0.9843
vn -0.4319 0.4216 -0.7973
vn 0.4329 0.3762 0.8192
vn -0.9800 -0.1966 0.0296
vt 0.274784 0.012672
vt 0.235374 0.222160
vt 0.090910 0.157461
vt 0.467270 0.135423
vt 0.363637 0.314921
vt 0.668742 0.150672
vt 0.545455 0.314921
vt 0.742501 0.288545
vt 0.446742 0.409485
vt 0.801342 0.277954
vt 0.749185 0.400022
vt 0.978801 0.157461
vt 0.855664 0.075636
vt 0.909092 -0.041002
vt 0.781869 0.409485
vt 0.512308 0.409485
vt 0.244334 0.423201
s 0
f 1/1/1 2/2/1 3/3/1
f 2/2/2 1/4/2 5/5/2
f 1/4/3 10/6/3 4/7/3
f 10/6/4 9/8/4 4/7/4
f 1/4/5 4/7/5 5/5/5
f 4/7/6 7/9/6 5/5/6
f 8/10/7 2/2/7 6/11/7
f 3/12/8 10/13/8 1/14/8
f 8/10/9 6/11/9 7/15/9 9/8/9
f 3/3/10 2/2/10 8/10/10
f 4/7/11 9/8/11 7/16/11
f 6/17/12 2/2/12 5/5/12 7/16/12
f 9/8/13 10/6/13 3/12/13 8/10/13
